<?xml version="1.0" encoding="UTF-8"?>
<svg width="106px" height="24px" viewBox="0 0 106 24" version="1.1" xmlns="http://www.w3.org/2000/svg" xmlns:xlink="http://www.w3.org/1999/xlink">
    <title>Atoms Cross/Logos/Segments/Reduced/Santander Management Reduced</title>
    <g id="Page-1" stroke="none" stroke-width="1" fill="none" fill-rule="evenodd">
        <g id="Santander-Management" fill="#EC0000">
            <path d="M27.8485496,22.3006464 L28.7036562,22.3006464 L28.7036562,0 L27.8485496,0 L27.8485496,22.3006464 Z M14.2984919,8.69213742 C14.268868,8.00827873 14.0774421,7.32999823 13.7232843,6.71666372 L10.5998937,1.30781831 C10.3617073,0.895298389 10.1969827,0.453293784 10.10572,0 L9.97500307,0.22604923 C9.20199314,1.56481318 9.20199314,3.21422879 9.97500307,4.55299274 L12.4739015,8.88020188 C13.2470443,10.2190986 13.2470443,11.8685143 12.4739015,13.207411 L12.3434502,13.4334602 C12.2519218,12.9801665 12.0874629,12.5381619 11.8492765,12.1256419 L8.10099532,5.63489463 C7.86280889,5.2222419 7.69835,4.78037011 7.60682158,4.32707632 L7.47637034,4.55312555 C6.70575157,5.88737383 6.70336041,7.53014875 7.46866549,8.86652205 L7.4683998,8.86665486 L9.97500307,13.207411 C10.7482787,14.5463078 10.7482787,16.1957234 9.97500307,17.5344873 L9.84455183,17.7605366 C9.75315626,17.3073756 9.58856453,16.865371 9.3503781,16.4527183 L6.22698756,11.04374 C5.80800263,10.3184434 5.61657673,9.50177085 5.65151428,8.69266867 C2.30787104,9.56618559 0,11.4206658 0,13.5678679 C0,16.5552506 4.46602869,18.9768461 9.97500307,18.9768461 C15.4842431,18.9768461 19.9502718,16.5552506 19.9502718,13.5678679 C19.9502718,11.420533 17.6425336,9.56565433 14.2984919,8.69213742 Z M106,20.7020985 C105.975557,20.9342571 105.938892,21.2030724 105.890139,21.4350983 C105.523627,21.5692403 105.169336,21.6304675 104.790603,21.6304675 C103.617737,21.6304675 102.897067,21.044227 102.897067,19.676244 L102.897067,13.0927926 C103.153453,13.0072605 103.495522,12.9585178 103.752174,12.9585178 L103.752174,15.2180804 L105.963468,15.2180804 C105.951247,15.5112006 105.926671,15.7554454 105.877918,15.9874712 L103.752174,15.9874712 L103.752174,19.5783602 C103.752174,20.5067292 104.179793,20.8977333 104.937128,20.8977333 C105.279197,20.8977333 105.670285,20.8242872 106,20.7020985 Z M101.382132,17.355587 L101.382132,21.4839738 L100.527026,21.4839738 L100.527026,17.5142996 C100.527026,16.3784753 100.099406,15.792102 98.5968258,15.792102 C98.1568518,15.792102 97.6438144,15.8530636 97.1796631,15.9631663 L97.1796631,21.4839738 L96.3244237,21.4839738 L96.3244237,15.376793 C97.1428657,15.1568532 97.9369976,15.0346644 98.621136,15.0346644 C100.685773,15.0346644 101.382132,15.8775013 101.382132,17.355587 Z M90.4116084,17.8561626 L94.1254834,17.8561626 L94.1254834,17.8074199 C94.1254834,16.5981495 93.5391171,15.7798831 92.3297199,15.7798831 C91.1079683,15.7798831 90.5093804,16.5859306 90.4116084,17.8561626 Z M94.9318368,18.625819 L90.4116084,18.625819 C90.5214691,20.091553 91.291158,20.8731627 92.6840105,20.8731627 C93.3437059,20.8731627 94.0765974,20.726669 94.7362928,20.3480166 C94.7118498,20.5676908 94.6629638,20.8977333 94.6019891,21.166283 C93.9911798,21.5204976 93.3557946,21.6304675 92.6594347,21.6304675 C90.6192411,21.6304675 89.5441475,20.3967593 89.5441475,18.2959093 C89.5441475,16.4760935 90.3627224,15.0346644 92.3662515,15.0346644 C94.1988124,15.0346644 94.9807228,16.2928103 94.9807228,17.8683814 C94.9807228,18.1249779 94.9685013,18.3815743 94.9318368,18.625819 Z M88.3347503,17.355587 L88.3347503,21.4839738 L87.4795109,21.4839738 L87.4795109,17.4899947 C87.4795109,16.3784753 86.9418977,15.792102 85.6836145,15.792102 C85.1216912,15.792102 84.5718565,15.9265097 84.0588191,16.1461838 C84.1932556,16.4638746 84.2665846,16.8668319 84.2665846,17.355587 L84.2665846,21.4839738 L83.4113452,21.4839738 L83.4113452,17.4654241 C83.4113452,16.2805915 82.922618,15.792102 81.615316,15.792102 C81.1511646,15.792102 80.6257729,15.8530636 80.1494001,15.9631663 L80.1494001,21.4839738 L79.2942935,21.4839738 L79.2942935,15.376793 C80.1127356,15.1568532 80.919089,15.0346644 81.7009993,15.0346644 C82.5562387,15.0346644 83.1914911,15.1936426 83.6189779,15.5478573 C84.2908948,15.2302993 85.0116977,15.0346644 85.7569435,15.0346644 C87.6017259,15.0346644 88.3347503,15.8775013 88.3347503,17.355587 Z M73.3814783,17.8561626 L77.0953533,17.8561626 L77.0953533,17.8074199 C77.0953533,16.5981495 76.5089869,15.7798831 75.2995897,15.7798831 C74.0777053,15.7798831 73.4791174,16.5859306 73.3814783,17.8561626 Z M77.9015738,18.625819 L73.3814783,18.625819 C73.4913389,20.091553 74.2610278,20.8731627 75.6538804,20.8731627 C76.3134429,20.8731627 77.0464673,20.726669 77.7061626,20.3480166 C77.6817196,20.5676908 77.6328336,20.8977333 77.571859,21.166283 C76.9609168,21.5204976 76.3256644,21.6304675 75.6293045,21.6304675 C73.5891109,21.6304675 72.5140174,20.3967593 72.5140174,18.2959093 C72.5140174,16.4760935 73.3325923,15.0346644 75.3361214,15.0346644 C77.1686823,15.0346644 77.9505927,16.2928103 77.9505927,17.8683814 C77.9505927,18.1249779 77.9383712,18.3815743 77.9015738,18.625819 Z M70.6202161,20.2991411 L70.6202161,15.9387285 C70.2537039,15.8409775 69.8751031,15.792102 69.4352619,15.792102 C67.798245,15.792102 67.0528663,16.744776 67.0528663,18.3815743 C67.0528663,19.9571454 67.7371375,20.9220383 69.0687497,20.9220383 C69.7040021,20.9220383 70.2171723,20.6898796 70.6202161,20.2991411 Z M71.4753226,15.376793 L71.4753226,21.2518151 C71.4753226,22.949575 70.5836844,24 68.543358,24 C67.9203271,24 67.2850748,23.8901629 66.7107971,23.6457854 C66.7107971,23.4381973 66.7475944,23.1082876 66.7964804,22.8886134 C67.3584038,23.1572959 68.0425422,23.267133 68.543358,23.267133 C69.8628816,23.267133 70.6202161,22.729768 70.6202161,21.361785 L70.6202161,21.0320081 C70.2171723,21.3862228 69.6673376,21.6304675 68.9954207,21.6304675 C67.2606318,21.6304675 66.1855382,20.4700726 66.1855382,18.3815743 C66.1855382,16.2318488 67.2484103,15.0346644 69.4352619,15.0346644 C70.1925964,15.0346644 70.8278488,15.1325483 71.4753226,15.376793 Z M62.4472202,20.9220383 C63.0826054,20.9220383 63.5956428,20.6898796 63.9986866,20.2991411 L63.9986866,15.9387285 C63.6321744,15.8409775 63.2535736,15.792102 62.8137324,15.792102 C61.1767155,15.792102 60.4314696,16.744776 60.4314696,18.3815743 C60.4314696,19.9571454 61.115608,20.9220383 62.4472202,20.9220383 Z M64.853926,15.376793 L64.853926,21.4839738 L64.0597941,21.4839738 L64.035484,21.0075704 C63.6200858,21.3740039 63.0580296,21.6304675 62.374024,21.6304675 C60.6391023,21.6304675 59.5640087,20.4700726 59.5640087,18.3815743 C59.5640087,16.2318488 60.6268808,15.0346644 62.8137324,15.0346644 C63.5710669,15.0346644 64.2064521,15.1325483 64.853926,15.376793 Z M58.3058583,17.355587 L58.3058583,21.4839738 L57.450619,21.4839738 L57.450619,17.5142996 C57.450619,16.3784753 57.0229993,15.792102 55.5204189,15.792102 C55.0804448,15.792102 54.5674075,15.8530636 54.1032561,15.9631663 L54.1032561,21.4839738 L53.2480168,21.4839738 L53.2480168,15.376793 C54.0665916,15.1568532 54.8605907,15.0346644 55.5448619,15.0346644 C57.6094985,15.0346644 58.3058583,15.8775013 58.3058583,17.355587 Z M49.1798511,20.9220383 C49.8152363,20.9220383 50.3282736,20.6898796 50.7313175,20.2991411 L50.7313175,15.9387285 C50.3648053,15.8409775 49.9862044,15.792102 49.5463633,15.792102 C47.9093463,15.792102 47.1641005,16.744776 47.1641005,18.3815743 C47.1641005,19.9571454 47.8482388,20.9220383 49.1798511,20.9220383 Z M51.5865569,15.376793 L51.5865569,21.4839738 L50.792425,21.4839738 L50.7681148,21.0075704 C50.3527166,21.3740039 49.7906604,21.6304675 49.1066549,21.6304675 C47.3717331,21.6304675 46.2966396,20.4700726 46.2966396,18.3815743 C46.2966396,16.2318488 47.3595116,15.0346644 49.5463633,15.0346644 C50.3036978,15.0346644 50.939083,15.1325483 51.5865569,15.376793 Z M45.0872424,21.4839738 L44.1953385,21.4839738 L43.9388198,17.6609262 C43.8656236,16.4883124 43.8045161,15.3523552 43.7677188,14.2409687 C43.3157889,15.4867629 42.8148403,16.7936515 42.3383346,17.9662653 L40.9211718,21.4839738 L40.273698,21.4839738 L38.7588961,17.6364884 C38.2823904,16.4638746 37.842682,15.3156986 37.4883913,14.2531875 C37.4395053,15.3156986 37.3539548,16.6105012 37.2806258,17.7341066 L36.9874426,21.4839738 L36.1078931,21.4839738 L36.7675885,13.0805738 C37.0485501,12.9950416 37.5494988,12.9462989 37.818239,12.9462989 L40.6159,20.1402957 L43.3768965,13.0805738 C43.6943898,12.9706039 44.1588068,12.9462989 44.45199,12.9462989 L45.0872424,21.4839738 Z M63.2289977,8.48786967 C63.2046876,8.71989552 63.1678902,8.98857801 63.1191371,9.22073667 C62.7526249,9.35514432 62.3983342,9.4161059 62.0196005,9.4161059 C60.8468678,9.4161059 60.1260649,8.82986542 60.1260649,7.46188242 L60.1260649,0.878298211 C60.3825836,0.792898884 60.7246528,0.744023375 60.9811715,0.744023375 L60.9811715,3.00358597 L63.1924661,3.00358597 C63.1802446,3.29670622 63.1556687,3.54108376 63.1069156,3.77310962 L60.9811715,3.77310962 L60.9811715,7.3641314 C60.9811715,8.29236763 61.4087912,8.68323889 62.1661257,8.68323889 C62.5081949,8.68323889 62.8992829,8.60992562 63.2289977,8.48786967 Z M54.2865787,5.64206658 L58.0004537,5.64206658 L58.0004537,5.59305826 C58.0004537,4.38392067 57.4140873,3.56552152 56.2045572,3.56552152 C54.9828057,3.56552152 54.3842178,4.37170179 54.2865787,5.64206658 Z M58.8066742,6.41145741 L54.2865787,6.41145741 C54.3964393,7.87719143 55.1661282,8.65880113 56.5588479,8.65880113 C57.2185433,8.65880113 57.9515677,8.51230742 58.611263,8.13352222 C58.58682,8.35359483 58.537934,8.68323889 58.4769594,8.95192137 C57.8660172,9.306136 57.2307648,9.4161059 56.5344049,9.4161059 C54.4940785,9.4161059 53.4191178,8.18253055 53.4191178,6.08168054 C53.4191178,4.26173189 54.2376927,2.82043563 56.2412217,2.82043563 C58.0737827,2.82043563 58.8555602,4.07858155 58.8555602,5.65415265 C58.8555602,5.91061626 58.8434715,6.16721268 58.8066742,6.41145741 Z M48.165865,8.93983531 C48.1780865,8.59783956 48.2269725,8.36568089 48.28808,8.19474942 C48.8622249,8.5245263 49.6562239,8.67102001 50.2793876,8.67102001 C51.2200447,8.67102001 51.7941895,8.37789977 51.7941895,7.68168939 C51.7941895,6.94882238 51.1224055,6.69235877 50.5359063,6.50920843 L49.9739829,6.33827696 C48.8866679,6.00823446 48.28808,5.45878342 48.28808,4.48153887 C48.28808,3.39459005 49.1187436,2.82043563 50.4992418,2.82043563 C51.2078232,2.82043563 51.8675185,2.91818665 52.4294419,3.13799362 C52.4173532,3.34571454 52.3806887,3.61439702 52.3073597,3.85864176 C51.7454364,3.65105366 51.1224055,3.55330264 50.5238176,3.55330264 C49.5830278,3.55330264 49.1066549,3.85864176 49.1066549,4.45723393 C49.1066549,5.14109262 49.5830278,5.34894634 50.3404951,5.60527714 L50.91464,5.80077917 C51.8798729,6.13042323 52.6249859,6.59460776 52.6249859,7.65725164 C52.6249859,8.76890384 51.7698794,9.4161059 50.3036978,9.4161059 C49.4485912,9.4161059 48.7400099,9.26947937 48.165865,8.93983531 Z M42.8270618,8.93983531 C42.8394161,8.59783956 42.8881693,8.36568089 42.9492768,8.19474942 C43.5234216,8.5245263 44.3175535,8.67102001 44.9405844,8.67102001 C45.8812414,8.67102001 46.4555191,8.37789977 46.4555191,7.68168939 C46.4555191,6.94882238 45.7836022,6.69235877 45.1972359,6.50920843 L44.6353125,6.33827696 C43.5479975,6.00823446 42.9492768,5.45878342 42.9492768,4.48153887 C42.9492768,3.39459005 43.7800731,2.82043563 45.1605714,2.82043563 C45.8691527,2.82043563 46.5287153,2.91818665 47.0907715,3.13799362 C47.07855,3.34571454 47.0420183,3.61439702 46.9686893,3.85864176 C46.4066331,3.65105366 45.7836022,3.55330264 45.1850144,3.55330264 C44.2442245,3.55330264 43.7678516,3.85864176 43.7678516,4.45723393 C43.7678516,5.14109262 44.2442245,5.34894634 45.0016919,5.60527714 L45.5759696,5.80077917 C46.5410696,6.13042323 47.2863155,6.59460776 47.2863155,7.65725164 C47.2863155,8.76890384 46.4310761,9.4161059 44.9650274,9.4161059 C44.109788,9.4161059 43.4012066,9.26947937 42.8270618,8.93983531 Z M40.4081345,6.39923853 L38.7956934,1.64795467 L37.1707651,6.39923853 L40.4081345,6.39923853 Z M40.6770075,7.20541881 L36.902025,7.20541881 L36.1934436,9.26947937 L35.2893182,9.26947937 L38.2336372,0.866212148 C38.5390419,0.792898884 38.9422186,0.756242253 39.3087308,0.756242253 L42.2895814,9.26947937 L41.3855889,9.26947937 L40.6770075,7.20541881 L40.6770075,7.20541881 Z"></path>
        </g>
    </g>
</svg>